<svg width="1750" height="1750" viewBox="0 0 1750 1750" fill="none" xmlns="http://www.w3.org/2000/svg">
<rect x="500" width="125" height="1750" rx="62.5" fill="#253B48"/>
<rect x="1125" width="125" height="1750" rx="62.5" fill="#253B48"/>
<rect x="1301" y="165.513" width="77.0922" height="413.873" rx="38.5461" transform="rotate(-45 1301 165.513)" fill="#31C3BD"/>
<rect x="1593.65" y="111" width="77.0922" height="413.873" rx="38.5461" transform="rotate(45 1593.65 111)" fill="#31C3BD"/>
<rect x="701" y="165.513" width="77.0922" height="413.873" rx="38.5461" transform="rotate(-45 701 165.513)" fill="#31C3BD"/>
<rect x="993.652" y="111" width="77.0922" height="413.873" rx="38.5461" transform="rotate(45 993.652 111)" fill="#31C3BD"/>
<rect x="701" y="1362.51" width="77.0922" height="413.873" rx="38.5461" transform="rotate(-45 701 1362.51)" fill="#31C3BD"/>
<rect x="993.652" y="1308" width="77.0922" height="413.873" rx="38.5461" transform="rotate(45 993.652 1308)" fill="#31C3BD"/>
<rect x="76" y="165.513" width="77.0922" height="413.873" rx="38.5461" transform="rotate(-45 76 165.513)" fill="#31C3BD"/>
<rect x="368.652" y="111" width="77.0922" height="413.873" rx="38.5461" transform="rotate(45 368.652 111)" fill="#31C3BD"/>
<rect x="1750" y="500" width="125" height="1750" rx="62.5" transform="rotate(90 1750 500)" fill="#253B48"/>
<rect x="1750" y="1125" width="125" height="1750" rx="62.5" transform="rotate(90 1750 1125)" fill="#253B48"/>
<rect x="1750" y="259" width="53" height="1750" rx="26.5" transform="rotate(90 1750 259)" fill="#E4613E"/>
<path fill-rule="evenodd" clip-rule="evenodd" d="M874.58 1048.16C970.446 1048.16 1048.16 970.446 1048.16 874.58C1048.16 778.714 970.446 701 874.58 701C778.714 701 701 778.714 701 874.58C701 970.446 778.714 1048.16 874.58 1048.16ZM875 975C930.228 975 975 930.228 975 875C975 819.772 930.228 775 875 775C819.772 775 775 819.772 775 875C775 930.228 819.772 975 875 975Z" fill="#F2B137"/>
<path fill-rule="evenodd" clip-rule="evenodd" d="M1499.58 1048.16C1595.45 1048.16 1673.16 970.446 1673.16 874.58C1673.16 778.714 1595.45 701 1499.58 701C1403.71 701 1326 778.714 1326 874.58C1326 970.446 1403.71 1048.16 1499.58 1048.16ZM1500 975C1555.23 975 1600 930.228 1600 875C1600 819.772 1555.23 775 1500 775C1444.77 775 1400 819.772 1400 875C1400 930.228 1444.77 975 1500 975Z" fill="#F2B137"/>
<path fill-rule="evenodd" clip-rule="evenodd" d="M249.58 1655.16C345.446 1655.16 423.16 1577.45 423.16 1481.58C423.16 1385.71 345.446 1308 249.58 1308C153.714 1308 76 1385.71 76 1481.58C76 1577.45 153.714 1655.16 249.58 1655.16ZM250 1582C305.228 1582 350 1537.23 350 1482C350 1426.77 305.228 1382 250 1382C194.772 1382 150 1426.77 150 1482C150 1537.23 194.772 1582 250 1582Z" fill="#F2B137"/>
</svg>
